<svg xmlns="http://www.w3.org/2000/svg" xmlns:xlink="http://www.w3.org/1999/xlink" fill="none" version="1.1" width="200" height="68.217041015625" viewBox="0 0 200 68.217041015625"><defs><filter id="master_svg0_260_1145" filterUnits="objectBoundingBox" color-interpolation-filters="sRGB" x="0" y="0" width="1" height="1"><feFlood flood-opacity="0" result="BackgroundImageFix"/><feBlend mode="normal" in="SourceGraphic" in2="BackgroundImageFix" result="shape"/><feColorMatrix in="SourceAlpha" type="matrix" result="hardAlpha" values="0 0 0 0 0 0 0 0 0 0 0 0 0 0 0 0 0 0 127 0"/><feOffset dy="0.9922480583190918" dx="0.9922480583190918"/><feGaussianBlur stdDeviation="0.3720930516719818"/><feComposite in2="hardAlpha" operator="arithmetic" k2="-1" k3="1"/><feColorMatrix type="matrix" values="0 0 0 0 0 0 0 0 0 0 0 0 0 0 0 0 0 0 0.10000000149011612 0"/><feBlend mode="normal" in2="shape" result="effect1_innerShadow"/></filter><linearGradient x1="0.5" y1="0" x2="0.5" y2="1" id="master_svg1_23_2470"><stop offset="0.7142857182770967%" stop-color="#000000" stop-opacity="0.05000000074505806"/><stop offset="100%" stop-color="#000000" stop-opacity="0.15000000596046448"/></linearGradient><linearGradient x1="0.5" y1="0" x2="0.5" y2="1" id="master_svg2_23_2470"><stop offset="0.7142857182770967%" stop-color="#000000" stop-opacity="0.05000000074505806"/><stop offset="100%" stop-color="#000000" stop-opacity="0.15000000596046448"/></linearGradient><linearGradient x1="0.5" y1="0" x2="0.5" y2="1" id="master_svg3_23_2459"><stop offset="0.7142857182770967%" stop-color="#000000" stop-opacity="0.05000000074505806"/><stop offset="100%" stop-color="#000000" stop-opacity="0.15000000596046448"/></linearGradient><linearGradient x1="0.5" y1="0" x2="0.5" y2="1" id="master_svg4_23_2459"><stop offset="0.7142857182770967%" stop-color="#000000" stop-opacity="0.05000000074505806"/><stop offset="100%" stop-color="#000000" stop-opacity="0.15000000596046448"/></linearGradient><linearGradient x1="0.5" y1="0" x2="0.5" y2="1" id="master_svg5_23_2470"><stop offset="0.7142857182770967%" stop-color="#000000" stop-opacity="0.05000000074505806"/><stop offset="100%" stop-color="#000000" stop-opacity="0.15000000596046448"/></linearGradient><linearGradient x1="0.5" y1="0" x2="0.5" y2="1" id="master_svg6_23_2459"><stop offset="0.7142857182770967%" stop-color="#000000" stop-opacity="0.05000000074505806"/><stop offset="100%" stop-color="#000000" stop-opacity="0.15000000596046448"/></linearGradient></defs><g><g><g transform="matrix(1,0,0,-1,0,136.43408203125)"><path d="M4.09307861328125,86.208641015625C18.72567861328125,67.917867015625,43.06847861328125,64.132581015625,57.55737861328125,88.170841015625C58.01877861328125,88.93644101562501,58.84727861328125,89.433341015625,59.74117861328125,89.433441015625L64.24807861328125,89.433441015625C52.58917861328125,63.262821015625,19.47287861328125,60.286081015625,4.09307861328125,86.208641015625Z" fill="#F15A22" fill-opacity="1"/></g><g transform="matrix(1,0,0,-1,0,124.5283203125)"><path d="M18.976776123046875,65.20031015625C31.931676123046877,61.86284815625,39.914276123046875,66.43613015625,45.05887612304687,76.08216015625C45.506976123046876,76.92236015625,46.37267612304687,77.47926015625,47.324776123046874,77.47936015625L50.85277612304688,77.47936015625C43.030676123046874,62.40553415625,31.751976123046873,58.99866015625,18.976776123046875,65.20031015625Z" fill="#F15A22" fill-opacity="1"/></g><g transform="matrix(1,0,0,-1,0,112.62060546875)"><path d="M14.759765625,57.359482734375C23.064535624999998,56.833149734375,28.704365625,59.696512734375,32.974365625000004,64.729952734375C33.470065625000004,65.314292734375,34.184865625,65.669562734375,34.951165625,65.669562734375L38.573765625,65.669562734375C32.427565625,57.104769734375,24.391605625,54.651182734375,14.759765625,57.359482734375Z" fill="#F15A22" fill-opacity="1"/></g><g><path d="M4.09307861328125,17.9916C18.72567861328125,-0.299174,43.06847861328125,-4.08446,57.55737861328125,19.9538C58.01877861328125,20.7194,58.84727861328125,21.2163,59.74117861328125,21.2164L64.24807861328125,21.2164C52.58917861328125,-4.95422,19.47287861328125,-7.93096,4.09307861328125,17.9916Z" fill="#F15A22" fill-opacity="1"/></g><g><path d="M18.976776123046875,8.889030859375C31.931676123046877,5.551568859375,39.914276123046875,10.124850859375,45.05887612304687,19.770880859374998C45.506976123046876,20.611080859375,46.37267612304687,21.167980859375,47.324776123046874,21.168080859375L50.85277612304688,21.168080859375C43.030676123046874,6.094254859375,31.751976123046873,2.687380859375,18.976776123046875,8.889030859375Z" fill="#F15A22" fill-opacity="1"/></g><g><path d="M14.759765625,12.956162421875C23.064535624999998,12.429829421875,28.704365625,15.293192421875,32.974365625000004,20.326632421875C33.470065625000004,20.910972421875,34.184865625,21.266242421875,34.951165625,21.266242421875L38.573765625,21.266242421875C32.427565625,12.701449421875001,24.391605625,10.247862421875,14.759765625,12.956162421875Z" fill="#F15A22" fill-opacity="1"/></g><g filter="url(#master_svg0_260_1145)"><path d="M8.198334819335937,29.360979453125Q7.484184819335938,29.360979453125,7.176364819335937,29.640449453125Q6.868544819335938,29.919919453125,6.868544819335938,30.548729453125L6.868544819335938,33.296839453125L13.620914819335937,33.296949453125L13.620914819335937,35.882039453125L6.868544819335938,35.881929453125L6.868544819335938,42.635789453125L5.085314819335937,42.635789453125C3.9893038193359374,42.635789453125,3.1008148193359375,41.747289453125,3.1008148193359375,40.651289453125L3.1008148193359375,29.826759453125Q3.1008148193359375,28.289679453125,4.122784819335937,27.393049453125Q5.144744819335937,26.496423453125,6.843914819335938,26.496423453125Q9.478864819335937,26.496423453125,11.490794819335937,26.496041453125L15.054814819335938,26.496041453125L15.054814819335938,29.360829453125L8.198334819335937,29.360979453125ZM31.755314819335936,26.566338453125L31.755314819335936,42.635789453125L28.012214819335938,42.635789453125L28.012214819335938,35.462739453124996L22.003514819335937,35.462739453124996L22.003514819335937,42.635789453125L18.260414819335935,42.635789453125L18.260414819335935,28.302769453125C18.260414819335935,27.343766453125,19.037814819335935,26.566338453125,19.99681481933594,26.566338453125L22.003514819335937,26.566338453125L22.003514819335937,32.714709453124996L28.012214819335938,32.714709453124996L28.012214819335938,28.302769453125C28.012214819335938,27.343766453125,28.789614819335938,26.566338453125,29.748614819335938,26.566338453125L31.755314819335936,26.566338453125ZM43.12251481933594,26.356689453125Q45.535914819335936,26.356689453125,46.86561481933594,26.822437453125Q48.19541481933594,27.288218453125,48.76181481933594,28.406229453125Q49.32821481933594,29.524109453125,49.32821481933594,31.596669453125Q49.32821481933594,33.669389453125,48.774114819335935,34.810699453125Q48.22001481933594,35.951859453124996,47.00111481933594,36.405889453125Q45.78211481933594,36.860089453125,43.615114819335936,36.859989453124996Q41.98981481933594,36.859989453124996,40.41371481933594,36.673689453125L40.41371481933594,40.899289453125C40.41371481933594,41.858289453124996,39.63631481933594,42.635789453125,38.67731481933594,42.635789453125L36.67061481933594,42.635789453125L36.67061481933594,26.566338453125Q38.12351481933594,26.426603653125,39.40411481933594,26.391713653125Q40.684614819335934,26.356780078425,43.12251481933594,26.356689453125ZM43.048714819335935,34.135299453125Q44.033714819335934,34.112009453125,44.56311481933594,33.902299453124996Q45.092614819335935,33.692699453125,45.32661481933594,33.157109453125Q45.560514819335935,32.621459453125,45.560514819335935,31.596669453125Q45.560514819335935,30.571939453125,45.32661481933594,30.036469453125Q45.092614819335935,29.500819453125,44.56311481933594,29.291029453125Q44.033714819335934,29.081429453125,43.048714819335935,29.081629453125L40.41371481933594,29.081629453125L40.41371481933594,34.135299453125L43.048714819335935,34.135299453125ZM64.15511481933594,29.454219453125L60.818614819335934,29.454219453125L60.818614819335934,41.147389453125C60.818614819335934,41.969389453125004,60.15221481933594,42.635789453125,59.330214819335936,42.635789453125L57.05091481933594,42.635789453125L57.05091481933594,29.454219453125L51.97801481933594,29.454219453125L51.97801481933594,28.302769453125C51.97801481933594,27.343766453125,52.75541481933594,26.566338453125,53.714414819335936,26.566338453125L65.89151481933594,26.566338453125L65.89151481933594,27.717789453125C65.89151481933594,28.676799453125,65.11411481933594,29.454219453125,64.15511481933594,29.454219453125" fill="#004098" fill-opacity="1"/></g><g><g><path d="M24.558303833007812,1.364985703125C40.18620383300781,-2.107914296875,55.566103833007816,8.062605703125,61.395503833007815,21.209895703125C62.387803833007816,21.209895703125,63.25600383300781,21.209895703125,64.2482038330078,21.209795703125C59.783103833007814,10.667395703125,46.139703833007815,-4.340474296875,24.558303833007812,1.364985703125Z" fill="url(#master_svg1_23_2470)" fill-opacity="1"/></g><g><path d="M27.286956787109375,6.202139796875C36.96137678710937,5.954266196875,44.15515678710938,12.527911796875,48.55505678710938,21.135941796875002C49.30165678710938,21.135941796875002,50.10625678710937,21.135641796875,50.852856787109374,21.135641796875C45.891656787109376,11.783721796875,38.69785678710937,4.5897717968750005,27.286956787109375,6.202139796875Z" fill="url(#master_svg2_23_2470)" fill-opacity="1"/></g><g transform="matrix(1,0,0,-1,0,124.4287109375)"><path d="M27.286956787109375,62.44115346875C36.96137678710937,62.19327986875,44.15515678710938,68.76692546875,48.55505678710938,77.37495546875C49.30165678710938,77.37495546875,50.10625678710937,77.37465546875,50.852856787109374,77.37465546875C45.891656787109376,68.02273546875,38.69785678710937,60.82878546875,27.286956787109375,62.44115346875Z" fill="url(#master_svg3_23_2459)" fill-opacity="1"/></g><g transform="matrix(1,0,0,-1,0,136.23681640625)"><path d="M24.558303833007812,69.372798203125C40.18620383300781,65.899898203125,55.566103833007816,76.070418203125,61.395503833007815,89.217708203125C62.387803833007816,89.217708203125,63.25600383300781,89.217708203125,64.2482038330078,89.217608203125C59.783103833007814,78.675208203125,46.139703833007815,63.667338203125,24.558303833007812,69.372798203125Z" fill="url(#master_svg4_23_2459)" fill-opacity="1"/></g><g><path d="M22.077728271484375,11.9072265625C26.418818271484376,12.6514125625,31.231218271484373,14.8195365625,36.440528271484375,21.269146562499998L38.57382827148437,21.269146562499998C34.72892827148438,15.7521865625,29.023468271484376,11.9072265625,22.077728271484375,11.9072265625Z" fill="url(#master_svg5_23_2470)" fill-opacity="1"/></g><g transform="matrix(1,0,0,-1,0,112.5771484375)"><path d="M22.077728271484375,56.28857421875C26.418818271484376,57.03276021875,31.231218271484373,59.20088421875,36.440528271484375,65.65049421875L38.57382827148437,65.65049421875C34.72892827148438,60.13353421875,29.023468271484376,56.28857421875,22.077728271484375,56.28857421875Z" fill="url(#master_svg6_23_2459)" fill-opacity="1"/></g></g></g><g><path d="M94.8853019897461,46.25889921875L98.12560198974609,46.25889921875C98.7736019897461,46.25889921875,99.14880198974609,45.883699218749996,99.14880198974609,45.23559921875L99.14880198974609,44.38289921875C99.14880198974609,43.93949921875,99.38760198974609,43.70069921875,99.8310019897461,43.70069921875L103.27600198974609,43.70069921875C103.9240019897461,43.70069921875,104.2992019897461,43.32549921875,104.2992019897461,42.67749921875L104.2992019897461,42.199899218750005C104.2992019897461,41.551899218749995,103.9240019897461,41.17669921875,103.27600198974609,41.17669921875L99.8310019897461,41.17669921875C99.38760198974609,41.17669921875,99.14880198974609,41.006099218749995,99.14880198974609,40.73329921875C99.14880198974609,40.46039921875,99.38760198974609,40.28989921875,99.8310019897461,40.28989921875L102.76430198974609,40.28989921875C103.41240198974609,40.28989921875,103.7876019897461,39.91469921875,103.7876019897461,39.26659921875L103.7876019897461,38.65259921875C103.7876019897461,38.00459921875,103.41240198974609,37.629399218749995,102.76430198974609,37.629399218749995L99.8310019897461,37.629399218749995C99.38760198974609,37.629399218749995,99.14880198974609,37.45889921875,99.14880198974609,37.18599921875C99.14880198974609,36.91309921875,99.38760198974609,36.77669921875,99.8310019897461,36.77669921875L102.86670198974609,36.77669921875C103.5147019897461,36.77669921875,103.8899019897461,36.401499218750004,103.8899019897461,35.753399218750005L103.8899019897461,34.93479921875C103.8899019897461,34.286799218750005,103.5147019897461,33.91159921875,102.86670198974609,33.91159921875L99.8310019897461,33.91159921875C99.38760198974609,33.91159921875,99.14880198974609,33.740999218750005,99.14880198974609,33.43399921875C99.14880198974609,33.16119921875,98.7736019897461,32.99059921875,98.12560198974609,32.99059921875L94.8853019897461,32.99059921875C94.4760019897461,32.99059921875,94.2031019897461,33.127099218750004,94.0326019897461,33.36579921875C93.7938019897461,33.706899218749996,93.65740198974609,33.91159921875,93.2822019897461,33.91159921875L89.93950198974609,33.91159921875C89.2915019897461,33.91159921875,88.91630198974609,34.286799218750005,88.91630198974609,34.93479921875L88.91630198974609,35.753399218750005C88.91630198974609,36.401499218750004,89.2915019897461,36.77669921875,89.93950198974609,36.77669921875L93.1798019897461,36.77669921875C93.6233019897461,36.77669921875,93.86200198974609,36.94719921875,93.86200198974609,37.18599921875C93.86200198974609,37.45889921875,93.6233019897461,37.629399218749995,93.1798019897461,37.629399218749995L90.07600198974609,37.629399218749995C89.42790198974609,37.629399218749995,89.0527019897461,38.00459921875,89.0527019897461,38.65259921875L89.0527019897461,39.26659921875C89.0527019897461,39.91469921875,89.42790198974609,40.28989921875,90.07600198974609,40.28989921875L93.1798019897461,40.28989921875C93.6233019897461,40.28989921875,93.86200198974609,40.46039921875,93.86200198974609,40.73329921875C93.86200198974609,41.006099218749995,93.6233019897461,41.17669921875,93.1798019897461,41.17669921875L89.5643019897461,41.17669921875C88.91630198974609,41.17669921875,88.5411019897461,41.551899218749995,88.5411019897461,42.199899218750005L88.5411019897461,42.67749921875C88.5411019897461,43.32549921875,88.91630198974609,43.70069921875,89.5643019897461,43.70069921875L93.1798019897461,43.70069921875C93.6233019897461,43.70069921875,93.86200198974609,43.93949921875,93.86200198974609,44.38289921875L93.86200198974609,45.23559921875C93.86200198974609,45.883699218749996,94.2372019897461,46.25889921875,94.8853019897461,46.25889921875ZM83.0496119897461,21.83714921875L80.01395198974609,21.83714921875C79.16124198974609,21.83714921875,78.88837198974609,22.38287921875,79.40000198974609,23.09915921875L79.5023219897461,23.23558921875C79.7069719897461,23.508459218749998,79.77519198974609,23.78132921875,79.77519198974609,24.08830921875L79.77519198974609,33.26349921875C79.77519198974609,33.57049921875,79.74108198974609,33.77509921875,79.6728619897461,34.08209921875L76.63721198974609,45.09919921875C76.43255198974609,45.78129921875,76.8077519897461,46.25889921875,77.52403198974609,46.25889921875L79.8775219897461,46.25889921875C80.45736198974609,46.25889921875,80.8325519897461,46.020099218750005,81.0031019897461,45.40609921875L82.06046198974609,41.688299218750004C82.23100198974609,41.040199218750004,82.74263198974609,41.006099218749995,82.91317198974609,41.688299218750004L83.9023219897461,45.37199921875C84.07286198974609,45.985999218749996,84.48220198974609,46.25889921875,85.0620019897461,46.25889921875L86.9721019897461,46.25889921875C87.72250198974609,46.25889921875,88.06360198974609,45.78129921875,87.82480198974609,45.09919921875L84.2093019897461,33.94569921875C84.1069719897461,33.67279921875,84.07286198974609,33.43399921875,84.07286198974609,33.127099218750004L84.07286198974609,22.86039921875C84.07286198974609,22.21233921875,83.6976719897461,21.83714921875,83.0496119897461,21.83714921875ZM104.4015019897461,32.03559921875L104.4015019897461,31.48989921875C104.4015019897461,30.841799218749998,104.02640198974609,30.466599218749998,103.37830198974609,30.466599218749998L102.2527019897461,30.466599218749998C101.9457019897461,30.466599218749998,101.70700198974609,30.39839921875,101.4341019897461,30.22779921875L100.95660198974609,29.92089921875C100.5132019897461,29.61389921875,100.5132019897461,29.23869921875,100.9907019897461,28.96579921875L103.00310198974609,27.94259921875C103.5147019897461,27.70379921875,103.7535019897461,27.294499218749998,103.7535019897461,26.74876921875L103.7535019897461,24.02008921875C103.7535019897461,23.37202921875,103.37830198974609,22.99683921875,102.73020198974609,22.99683921875L96.93180198974609,22.99683921875C96.42020198974609,22.99683921875,96.1473019897461,22.758079218749998,96.3178019897461,22.41698921875C96.4884019897461,22.11000921875,96.01080198974608,21.871249218750002,95.2264019897461,21.871249218750002L91.3039019897461,21.871249218750002C90.6217019897461,21.871249218750002,90.28060198974609,22.17822921875,90.4171019897461,22.58752921875C90.51940198974609,22.96272921875,90.6217019897461,23.16737921875,90.4512019897461,23.508459218749998L88.57520198974609,27.08989921875C88.2000019897461,27.77199921875,88.5070019897461,28.31779921875,89.2915019897461,28.31779921875L91.78140198974609,28.31779921875C92.08840198974609,28.31779921875,92.3271019897461,28.38599921875,92.60000198974609,28.556499218749998L92.83880198974609,28.69299921875C93.21390198974609,28.931699218749998,93.0775019897461,29.23869921875,92.63410198974609,29.51159921875L91.4062019897461,30.22779921875C91.13330198974609,30.39839921875,90.8605019897461,30.466599218749998,90.5535019897461,30.466599218749998L89.4961019897461,30.466599218749998C88.8481019897461,30.466599218749998,88.47290198974609,30.841799218749998,88.47290198974609,31.48989921875L88.47290198974609,32.03559921875C88.47290198974609,32.68369921875,88.8481019897461,33.05889921875,89.4961019897461,33.05889921875L92.2930019897461,33.05889921875C92.7705019897461,33.05889921875,93.11160198974609,32.99059921875,93.55500198974609,32.75189921875L96.38600198974609,31.31929921875C96.6930019897461,31.14879921875,97.0000019897461,31.14879921875,97.3070019897461,31.35339921875L99.62640198974609,32.71779921875C100.0698019897461,32.99059921875,100.41080198974609,33.05889921875,100.88840198974609,33.05889921875L103.37830198974609,33.05889921875C104.02640198974609,33.05889921875,104.4015019897461,32.68369921875,104.4015019897461,32.03559921875ZM87.31320198974609,33.63869921875L87.65430198974609,25.31621921875C87.6884019897461,24.66814921875,87.2791019897461,24.25884921875,86.6310019897461,24.25884921875L85.9829019897461,24.25884921875C85.3349019897461,24.25884921875,84.9597019897461,24.56582921875,84.9256019897461,25.24799921875L84.65270198974609,33.604599218749996C84.6186019897461,34.252699218749996,85.0279019897461,34.62779921875,85.6760019897461,34.62779921875L86.2899019897461,34.62779921875C86.9380019897461,34.62779921875,87.2791019897461,34.32089921875,87.31320198974609,33.63869921875ZM77.76279198974609,34.62779921875L78.3085219897461,34.62779921875C78.9565819897461,34.62779921875,79.33178198974609,34.252699218749996,79.29767198974609,33.604599218749996L79.0589119897461,25.28210921875C79.0248019897461,24.599939218750002,78.64961198974609,24.25884921875,78.00155198974609,24.25884921875L77.52403198974609,24.25884921875C76.87597198974609,24.25884921875,76.5348819897461,24.63404921875,76.5348819897461,25.28210921875L76.7054219897461,33.604599218749996C76.7054219897461,34.286799218750005,77.11472198974609,34.62779921875,77.76279198974609,34.62779921875ZM98.0574019897461,26.40768921875L97.2388019897461,26.88520921875C96.93180198974609,27.05579921875,96.5907019897461,27.05579921875,96.28370198974609,26.85109921875L94.61240198974609,25.75962921875L94.6465019897461,25.69140921875C94.6465019897461,25.657299218749998,94.8512019897461,25.657299218749998,95.2264019897461,25.657299218749998L97.68220198974609,25.657299218749998C98.33020198974609,25.657299218749998,98.5690019897461,26.100709218749998,98.0574019897461,26.40768921875ZM124.3891019897461,21.80303921875L119.1023019897461,21.80303921875C118.28370198974609,21.80303921875,117.97670198974609,22.34876921875,118.42010198974609,23.03093921875L118.6930019897461,23.47434921875C118.86360198974609,23.78132921875,118.93180198974609,23.98597921875,118.93180198974609,24.29295921875L118.93180198974609,32.37669921875C118.93180198974609,32.71779921875,118.82950198974609,32.95649921875,118.62480198974609,33.229399218750004L108.93800198974608,45.09919921875C108.3922019897461,45.78129921875,108.66510198974609,46.36119921875,109.51780198974609,46.36119921875L114.63410198974609,46.36119921875C115.1457019897461,46.36119921875,115.5209019897461,46.224699218750004,115.86200198974609,45.78129921875L121.79690198974609,38.55029921875C122.10390198974609,38.20919921875,122.44500198974609,38.14099921875,122.7519019897461,38.51619921875L129.0961019897461,45.78129921875C129.4372019897461,46.190599218749995,129.8465019897461,46.36119921875,130.3581019897461,46.36119921875L135.4403019897461,46.36119921875C136.3271019897461,46.36119921875,136.6000019897461,45.74719921875,136.02020198974608,45.09919921875L125.7194019897461,33.092999218749995C125.5147019897461,32.85419921875,125.41240198974609,32.581299218750004,125.41240198974609,32.24019921875L125.41240198974609,22.82628921875C125.41240198974609,22.17822921875,125.0372019897461,21.80303921875,124.3891019897461,21.80303921875ZM111.42790198974609,34.11619921875L115.5550019897461,34.11619921875C116.2372019897461,34.11619921875,116.6124019897461,33.706899218749996,116.4760019897461,32.99059921875L114.90700198974609,24.66814921875C114.80460198974609,24.05419921875,114.42950198974609,23.74721921875,113.8155019897461,23.74721921875L109.34730198974609,23.74721921875C108.5287019897461,23.74721921875,108.2217019897461,24.29295921875,108.6310019897461,24.97512921875L108.69920198974609,25.07745921875C108.8357019897461,25.350319218750002,108.90390198974609,25.55496921875,108.9721019897461,25.86194921875L110.3364019897461,33.19529921875C110.4388019897461,33.809199218749995,110.81390198974609,34.11619921875,111.42790198974609,34.11619921875ZM134.0077019897461,33.19529921875L135.57670198974608,24.87280921875C135.7132019897461,24.156529218750002,135.3380019897461,23.74721921875,134.6558019897461,23.74721921875L129.71010198974608,23.74721921875C128.8915019897461,23.74721921875,128.61860198974608,24.25884921875,129.02790198974608,24.97512921875L129.06200198974608,25.043349218750002C129.2326019897461,25.31621921875,129.26670198974608,25.58907921875,129.1984019897461,25.930169218750002L127.90230198974609,32.99059921875C127.76590198974608,33.706899218749996,128.1411019897461,34.11619921875,128.82330198974608,34.11619921875L132.9163019897461,34.11619921875C133.5302019897461,34.11619921875,133.9054019897461,33.809199218749995,134.0077019897461,33.19529921875ZM141.0341019897461,36.23089921875L141.0341019897461,44.758099218750004C141.0341019897461,45.40609921875,141.4093019897461,45.78129921875,142.0574019897461,45.78129921875L164.4326019897461,45.78129921875C165.0806019897461,45.78129921875,165.45580198974608,45.40609921875,165.45580198974608,44.758099218750004L165.45580198974608,36.23089921875C165.45580198974608,35.58289921875,165.0806019897461,35.20769921875,164.4326019897461,35.20769921875L142.0574019897461,35.20769921875C141.4093019897461,35.20769921875,141.0341019897461,35.58289921875,141.0341019897461,36.23089921875ZM138.9194019897461,32.37669921875L138.9194019897461,33.53639921875C138.9194019897461,34.18439921875,139.2946019897461,34.55959921875,139.9426019897461,34.55959921875L166.3085019897461,34.55959921875C166.9566019897461,34.55959921875,167.3318019897461,34.18439921875,167.3318019897461,33.53639921875L167.3318019897461,32.37669921875C167.3318019897461,31.72859921875,166.9566019897461,31.35339921875,166.3085019897461,31.35339921875L159.9984019897461,31.35339921875C159.55500198974607,31.35339921875,159.31630198974608,31.114699218749998,159.31630198974608,30.67129921875L159.31630198974608,27.635599218750002C159.31630198974608,27.192199218749998,159.55500198974607,26.95342921875,159.9984019897461,26.95342921875L165.5922019897461,26.95342921875C166.24030198974611,26.95342921875,166.6155019897461,26.57822921875,166.6155019897461,25.930169218750002L166.6155019897461,24.83869921875C166.6155019897461,24.19062921875,166.24030198974611,23.81543921875,165.5922019897461,23.81543921875L163.0341019897461,23.81543921875C162.5566019897461,23.81543921875,162.3178019897461,23.508459218749998,162.4543019897461,23.03093921875L162.5225019897461,22.82628921875C162.6930019897461,22.24644921875,162.3178019897461,21.871249218750002,161.6015019897461,21.871249218750002L156.31470198974608,21.871249218750002C155.5302019897461,21.871249218750002,155.2232019897461,22.34876921875,155.5643019897461,23.065049218749998C155.6667019897461,23.26969921875,155.6667019897461,23.40613921875,155.6326019897461,23.57667921875C155.5643019897461,23.71310921875,155.32560198974608,23.81543921875,154.9504019897461,23.81543921875L151.0961019897461,23.81543921875C150.7209019897461,23.81543921875,150.44810198974608,23.67900921875,150.2775019897461,23.33791921875L149.8682019897461,22.58752921875C149.59530198974608,22.07590921875,149.1860019897461,21.871249218750002,148.6403019897461,21.871249218750002L144.4450019897461,21.871249218750002C143.62630198974608,21.871249218750002,143.3194019897461,22.38287921875,143.7287019897461,23.09915921875C143.9674019897461,23.508459218749998,143.7628019897461,23.81543921875,143.2170019897461,23.81543921875L140.5566019897461,23.81543921875C139.9085019897461,23.81543921875,139.5333019897461,24.19062921875,139.5333019897461,24.83869921875L139.5333019897461,25.930169218750002C139.5333019897461,26.57822921875,139.9085019897461,26.95342921875,140.5566019897461,26.95342921875L146.2527019897461,26.95342921875C146.6961019897461,26.95342921875,146.9349019897461,27.192199218749998,146.9349019897461,27.635599218750002L146.9349019897461,30.67129921875C146.9349019897461,31.114699218749998,146.6961019897461,31.35339921875,146.2527019897461,31.35339921875L139.9426019897461,31.35339921875C139.2946019897461,31.35339921875,138.9194019897461,31.72859921875,138.9194019897461,32.37669921875ZM147.65120198974608,37.90229921875L158.4294019897461,37.90229921875C158.87290198974608,37.90229921875,159.11160198974608,38.14099921875,159.11160198974608,38.55029921875C159.11160198974608,38.95959921875,158.87290198974608,39.23249921875,158.4294019897461,39.23249921875L147.65120198974608,39.23249921875C147.2077019897461,39.23249921875,146.9690019897461,38.993699218749995,146.9690019897461,38.55029921875C146.9690019897461,38.14099921875,147.2077019897461,37.90229921875,147.65120198974608,37.90229921875ZM165.0465019897461,30.02319921875L165.3876019897461,28.72709921875C165.5581019897461,28.04489921875,165.2170019897461,27.60149921875,164.5008019897461,27.60149921875L161.9767019897461,27.60149921875C161.3628019897461,27.60149921875,160.9876019897461,27.87439921875,160.85120198974607,28.48829921875L160.5101019897461,29.78439921875C160.3395019897461,30.466599218749998,160.6806019897461,30.909999218750002,161.39690198974608,30.909999218750002L163.92090198974608,30.909999218750002C164.5349019897461,30.909999218750002,164.9101019897461,30.637099218750002,165.0465019897461,30.02319921875ZM145.6729019897461,29.78439921875L145.3318019897461,28.45419921875C145.1953019897461,27.84019921875,144.8202019897461,27.567399218749998,144.2062019897461,27.567399218749998L141.75040198974608,27.567399218749998C141.0341019897461,27.567399218749998,140.6930019897461,28.01079921875,140.8636019897461,28.69299921875L141.2046019897461,30.02319921875C141.3411019897461,30.60299921875,141.75040198974608,30.909999218750002,142.36430198974608,30.909999218750002L144.7860019897461,30.909999218750002C145.5023019897461,30.909999218750002,145.8434019897461,30.466599218749998,145.6729019897461,29.78439921875ZM146.9690019897461,42.50689921875C146.9690019897461,42.09759921875,147.2077019897461,41.89299921875,147.65120198974608,41.89299921875L158.4294019897461,41.89299921875C158.87290198974608,41.89299921875,159.11160198974608,42.13169921875,159.11160198974608,42.50689921875C159.11160198974608,42.88209921875,158.87290198974608,43.12089921875,158.4294019897461,43.12089921875L147.65120198974608,43.12089921875C147.2077019897461,43.12089921875,146.9690019897461,42.88209921875,146.9690019897461,42.50689921875ZM152.6992019897461,26.95342921875L153.5519019897461,26.95342921875C153.9953019897461,26.95342921875,154.23410198974608,27.192199218749998,154.23410198974608,27.635599218750002L154.23410198974608,30.67129921875C154.23410198974608,31.114699218749998,153.9953019897461,31.35339921875,153.5519019897461,31.35339921875L152.6992019897461,31.35339921875C152.2558019897461,31.35339921875,152.0170019897461,31.114699218749998,152.0170019897461,30.67129921875L152.0170019897461,27.635599218750002C152.0170019897461,27.192199218749998,152.2558019897461,26.95342921875,152.6992019897461,26.95342921875ZM173.4713019897461,23.47434921875L173.4713019897461,24.66814921875C173.4713019897461,25.31621921875,173.8465019897461,25.69140921875,174.4946019897461,25.69140921875L179.9516019897461,25.69140921875C180.4636019897461,25.69140921875,180.70260198974609,26.03248921875,180.4636019897461,26.51000921875L178.41660198974608,30.39839921875C178.2466019897461,30.739499218749998,178.0076019897461,30.87589921875,177.6326019897461,30.87589921875L172.24340198974608,30.87589921875C171.59530198974608,30.87589921875,171.2202019897461,31.25109921875,171.2202019897461,31.89919921875L171.2202019897461,33.092999218749995C171.2202019897461,33.740999218750005,171.59530198974608,34.11619921875,172.24340198974608,34.11619921875L175.6206019897461,34.11619921875C176.1316019897461,34.11619921875,176.3706019897461,34.457299218749995,176.1316019897461,34.93479921875L170.8450019897461,45.13329921875C170.4698019897461,45.81539921875,170.8109019897461,46.36119921875,171.59530198974608,46.36119921875L176.5406019897461,46.36119921875C177.0866019897461,46.36119921875,177.4616019897461,46.122399218750004,177.7346019897461,45.61079921875L183.4306019897461,34.593699218750004C183.6016019897461,34.252699218749996,183.8406019897461,34.11619921875,184.2156019897461,34.11619921875L184.7616019897461,34.11619921875C185.1366019897461,34.11619921875,185.3756019897461,34.252699218749996,185.5456019897461,34.593699218750004L191.24160198974607,45.61079921875C191.5146019897461,46.122399218750004,191.8896019897461,46.36119921875,192.4356019897461,46.36119921875L197.3816019897461,46.36119921875C198.1656019897461,46.36119921875,198.5066019897461,45.81539921875,198.1316019897461,45.13329921875L192.84460198974608,34.93479921875C192.60660198974608,34.457299218749995,192.84460198974608,34.11619921875,193.35660198974608,34.11619921875L196.7336019897461,34.11619921875C197.3816019897461,34.11619921875,197.7566019897461,33.740999218750005,197.7566019897461,33.092999218749995L197.7566019897461,31.89919921875C197.7566019897461,31.25109921875,197.3816019897461,30.87589921875,196.7336019897461,30.87589921875L186.2276019897461,30.87589921875C185.7166019897461,30.87589921875,185.4776019897461,30.534799218750003,185.7166019897461,30.05729921875L187.7626019897461,26.16892921875C187.93360198974608,25.82783921875,188.17160198974608,25.69140921875,188.5476019897461,25.69140921875L194.4826019897461,25.69140921875C195.13060198974608,25.69140921875,195.50560198974608,25.31621921875,195.50560198974608,24.66814921875L195.50560198974608,23.47434921875C195.50560198974608,22.82628921875,195.13060198974608,22.45109921875,194.4826019897461,22.45109921875L174.4946019897461,22.45109921875C173.8465019897461,22.45109921875,173.4713019897461,22.82628921875,173.4713019897461,23.47434921875Z" fill="#004098" fill-opacity="1"/></g></g></svg>